<?xml version="1.0" encoding="utf-8"?>
<svg version="1.1" baseProfile="basic" id="Layer_1"
	 xmlns="http://www.w3.org/2000/svg" xmlns:xlink="http://www.w3.org/1999/xlink" x="0px" y="0px" viewBox="0 0 512 512"
	 xml:space="preserve">
<g>
	<path d="M255.7,464.5c-14.8,0-29.5-1.6-43.9-4.6l-20.6-46.8l-10.7-5.2c-8-3.9-15.8-8.5-23.2-13.7l-10-7.1l-49.4,5.4
		c-18.4-21.2-32.3-45.8-41-72.4l29.7-40.6l-0.8-11.9c-0.3-4.1-0.4-8.2-0.4-12.2c0-4,0.1-8.1,0.4-12.2l0.8-11.9l-29.7-40.6
		c8.6-26.6,22.6-51.2,41-72.4l49.4,5.4l10-7.1c7.3-5.2,15.1-9.8,23.2-13.7l10.7-5.2l20.6-46.8c14.4-3.1,29.1-4.6,43.9-4.6
		c12.3,0,24.5,1.1,36.4,3.2l20.2,45.9l11.4,5.1c9.7,4.3,19.1,9.6,27.9,15.8l10,7l51.2-5.6c17.2,19.6,30.6,42.3,39.4,66.7l-30.2,41.2
		l1.3,12.4c0.6,5.7,0.9,11.6,0.9,17.3c0,5.8-0.3,11.6-0.9,17.3l-1.3,12.4l30.2,41.2c-8.8,24.4-22.2,47.1-39.4,66.7l-51.2-5.6l-10,7
		c-8.8,6.1-18.2,11.4-27.9,15.8l-11.4,5.1l-20.2,45.9C280.1,463.4,267.9,464.5,255.7,464.5z M254.8,99.5c-86,0-156,70-156,156
		s70,156,156,156c86,0,156-70,156-156S340.8,99.5,254.8,99.5z"/>
	<path d="M255.7,14c-23.3,0-45.9,3.3-67.2,9.5l-22.2,50.4c-9.7,4.7-18.9,10.2-27.6,16.3l-53.4-5.8C54.5,115,32,153.8,21.3,197.3
		l32,43.8c-0.3,4.8-0.5,9.6-0.5,14.5s0.2,9.7,0.5,14.5l-32,43.8c10.8,43.4,33.3,82.2,64,112.8l53.4-5.8c8.7,6.1,18,11.6,27.6,16.3
		l22.2,50.4c21.3,6.2,43.9,9.5,67.2,9.5c20.5,0,40.5-2.6,59.5-7.4L337,440c11.7-5.2,22.8-11.5,33.2-18.8l55.2,6
		c29.4-29.1,51.4-65.7,62.8-106.6l-32.6-44.5c0.7-6.8,1-13.7,1-20.6s-0.4-13.8-1-20.6l32.6-44.5c-11.4-41-33.4-77.6-62.8-106.6
		l-55.2,6C359.9,82.5,348.8,76.2,337,71l-21.9-49.6C296.2,16.6,276.2,14,255.7,14L255.7,14z M254.8,379
		c-68.2,0-123.5-55.3-123.5-123.5S186.6,132,254.8,132s123.5,55.3,123.5,123.5S323,379,254.8,379L254.8,379z"/>
</g>
</svg>
