<?xml version="1.0" encoding="utf-8"?>
<svg version="1.1" baseProfile="basic" id="Layer_1"
	 xmlns="http://www.w3.org/2000/svg" xmlns:xlink="http://www.w3.org/1999/xlink" x="0px" y="0px" viewBox="0 0 512 512"
	 xml:space="preserve">
<g>
	<path d="M25.3,217.8c17.4-78.5,95.6-156.3,174.1-173.5c47.5-10.4,95.6-6.6,139.3,11c41.6,16.8,77.3,45.1,103.2,81.9l9.4,13.4h-63.6
		l-2.5-2.7c-1.8-2-3.5-3.7-5-5.3c-34.3-34.3-79.9-53.2-128.4-53.2c0,0-0.1,0-0.1,0c-47.2,0-93.6,19-127.2,52.1
		c-35.4,34.8-54.7,81.4-54.3,131.1c0.4,46.5,18.3,90.6,50.5,124.2c34.6,36.1,81.2,55.9,131.1,55.9c48,0,93.2-18.5,127.4-52.2
		l2.5-2.4h65.6L437,411.6c-21.2,27.9-49,51-80.2,66.9c-32.7,16.6-68,25-105,25c-70.9,0-137-31.8-181.5-87.1
		c-21.3-26.5-36.7-57.9-44.6-90.8C17.4,290.5,17.2,254.2,25.3,217.8z"/>
	<path d="M321.5,207l167.5-1.3c11.3-0.1,20.6-12.9,17.2-23.7L455.6,21.2c-3.6-11.3-18.3-11.8-26.2-0.8L312.5,182.5
		C304.7,193.3,309.7,207.1,321.5,207z"/>
</g>
</svg>
