<?xml version="1.0" encoding="utf-8"?>
<svg version="1.1" baseProfile="basic" id="Layer_1"
	 xmlns="http://www.w3.org/2000/svg" xmlns:xlink="http://www.w3.org/1999/xlink" x="0px" y="0px" viewBox="0 0 512 512"
	 xml:space="preserve">
<g>
	<path d="M501,217.8c-17.4-78.5-95.6-156.3-174.1-173.5c-47.5-10.4-95.6-6.6-139.3,11c-41.6,16.8-77.3,45.1-103.2,81.9l-9.4,13.4
		h63.6l2.5-2.7c1.8-2,3.5-3.7,5-5.3c34.3-34.3,79.9-53.2,128.4-53.2c0,0,0.1,0,0.1,0c47.2,0,93.6,19,127.2,52.1
		c35.4,34.8,54.7,81.4,54.3,131.1c-0.4,46.5-18.3,90.6-50.5,124.2c-34.6,36.1-81.2,55.9-131.1,55.9c-48,0-93.2-18.5-127.4-52.2
		l-2.5-2.4H78.9l10.4,13.6c21.2,27.9,49,51,80.2,66.9c32.7,16.6,68,25,105,25c70.9,0,137-31.8,181.5-87.1
		c21.3-26.5,36.7-57.9,44.6-90.8C508.9,290.5,509.1,254.2,501,217.8z"/>
	<path d="M204.8,207l-167.5-1.3C26,205.6,16.7,192.7,20.1,182L70.7,21.2C74.3,9.9,89,9.4,96.9,20.3l116.9,162.1
		C221.6,193.3,216.6,207.1,204.8,207z"/>
</g>
</svg>
